<svg xmlns="http://www.w3.org/2000/svg" xmlns:xlink="http://www.w3.org/1999/xlink" viewBox="0 0 512 91"><defs><symbol id="a" viewBox="0 0 97.49 43.72"><path d="M21.93 36.52a16.1 16.1 0 0 1-4 3.32l2.43-1.39C14.7 40 8.39 39.93 2.6 40.32c-.29 0-2.58 1.54-2.6 1.5.63 1.14 3.4.93 4.44 1 2.54.06 5.08-.09 7.61-.28 1.22-.08 2.44-.18 3.65-.29a20.3 20.3 0 0 1 5.12.67 63 63 0 0 0 10.37.85c10.2-.07 19.41-3.54 27.76-9.21A13.6 13.6 0 0 1 51.19 32l-2.59 1.5c4.64.63 9.72.46 13.71-2.24a13.5 13.5 0 0 0 3.34-3l.61-.58h-1.73a22 22 0 0 1-2.32-.24 16.9 16.9 0 0 1-5-1.48l-2.6 1.5c4.61.62 10.75.58 14.63-2.49a15.4 15.4 0 0 0 2.4-2.86l.42-.57c.78-.66.65-.87-.39-.64a14 14 0 0 0-2.43-.22 15.9 15.9 0 0 1-5.16-1.59l-2.59 1.5c4 .54 10 .85 13.35-2.13a22.6 22.6 0 0 0 3-4.18c.84-1.27.71-1-.71-1-.89 0-1.76-.05-2.64-.12a38 38 0 0 1-6-.89l-2.6 1.5c3.6.49 8.15.63 11.53-1 2.61-1.23 3.67-3.64 5.82-5.48.33-.28.66-.54 1-.8 1.79-1.32.09 0 0-.12s2.23-1 2.51-1.09a22 22 0 0 1 4-1 19 19 0 0 1 4.15-.38c.73 0 1.93-1.68 2.59-1.5-14-3.95-28.68-3.17-41.8 3.42a83 83 0 0 0-24.95 19.36 129 129 0 0 0-8.81 11.34c.52-.73 2.08-.75 2.6-1.5A110.6 110.6 0 0 1 40.3 16.58c8.84-8 19.32-13.48 31.3-14.85A60.8 60.8 0 0 1 94.9 3.9l2.59-1.5C89.88 2 81.18 6.66 77.05 13l2.6-1.5a27.4 27.4 0 0 1-11.14.76c-.75-.1-1.9 1.67-2.6 1.5a37.4 37.4 0 0 0 5.56.86c.87.08 1.73.13 2.6.15H75c1.07-.28 1.24-.05.49.68-.33 1.42-2.35 3.4-3.19 4.52l2.6-1.5a27.6 27.6 0 0 1-10.78.65c-.58-.08-2.15 1.74-2.59 1.5A15 15 0 0 0 66 22a17.5 17.5 0 0 0 2.29.3l.85.05c1-.23 1.17 0 .39.64-.44 1.16-1.9 2.49-2.71 3.36l2.59-1.5A27.2 27.2 0 0 1 57.24 26c-.6-.08-2.12 1.74-2.6 1.5a16.7 16.7 0 0 0 4.62 1.42 21 21 0 0 0 2.26.27c.42 0 .84.05 1.26.05.94-.21 1.13-.11.58.29-.39 1.05-2.79 2.6-3.63 3.26l2.6-1.5a27.4 27.4 0 0 1-11.14.71c-.46-.06-2.31 1.72-2.59 1.5a12.1 12.1 0 0 0 4.73 2.11c1.33.31 3.64.13 1.49 1.41A31 31 0 0 1 51 38.85a45.5 45.5 0 0 1-17.24 3.37 62 62 0 0 1-9.93-.78 32 32 0 0 0-5.29-.77c-1.3 0-2.62.23-3.92.32-2.53.19-5.08.34-7.62.28-1.06 0-3.8.19-4.43-1L0 41.82c4.52-.3 9.05-.65 13.56-1.19a13.2 13.2 0 0 0 5.13-1.21A21 21 0 0 0 24.53 35c-.6.73-1.98.8-2.6 1.52" class="a"/><path d="M30.58 32.38c-2.76 2-5.14 4.44-7.95 6.36l2.6-1.5A207 207 0 0 1 44.2 21c10.7-7.85 23.33-15.23 37-15.65l2.59-1.5a41 41 0 0 0-11.88 3.23 138.7 138.7 0 0 0-21.8 11.57c-6.75 4.22-13.22 8.87-19.53 13.73.78-.6 1.81-.89 2.6-1.5C44 22.51 55.46 14.37 68.17 9.05c4.1-1.71 8.51-3.34 13-3.69.89-.07 1.72-1.47 2.59-1.5C73.07 4.19 63.2 9 54.13 14.3A152.5 152.5 0 0 0 30 31.88c-2.52 2.22-4.91 4.56-7.36 6.86a20 20 0 0 1 2.6-1.5c2.81-1.92 5.19-4.37 8-6.36-.87.58-1.85.92-2.66 1.5" class="a"/></symbol><style>.a{fill:#9cc421}.b,.c{fill:gray;stroke:gray;stroke-miterlimit:10}.c{fill:none}</style></defs><path d="m100.61 39.22.85 3.43c.79 3.12 1.57 5.86 2.34 8.2s2.75 7.76 5.94 16.26c.3-1.07.91-3.46 1.83-7.15q1.75-7.2 2.34-9a36.8 36.8 0 0 1 3.29-8 10.3 10.3 0 0 1 3.53-3.66 8.76 8.76 0 0 1 4.41-1.12 5.25 5.25 0 0 1 3 .74 2.1 2.1 0 0 1 1.05 1.75 1.74 1.74 0 0 1-.56 1.29 1.85 1.85 0 0 1-1.33.56 3.6 3.6 0 0 1-1.27-.29c-1-.39-1.63-.62-1.83-.68a6.3 6.3 0 0 0-1.19-.11 3.7 3.7 0 0 0-2.56 1q-1.87 1.71-4.15 8.53t-5.77 21.82l-1 4.37q-3.47-7.35-4.68-10.43-1.65-4.12-3.75-10.43l-3.35-10.2q-.61 3.52-2.85 11.85t-2.66 9.6a23 23 0 0 1-3 6.06 10.5 10.5 0 0 1-3.5 3.08 9.2 9.2 0 0 1-4.19 1 8.24 8.24 0 0 1-4.69-1.23 2.71 2.71 0 0 1-1.4-2.32 1.45 1.45 0 0 1 .52-1.1 1.76 1.76 0 0 1 1.25-.54 3.18 3.18 0 0 1 2 1 5.63 5.63 0 0 0 3.56 1.72 5.1 5.1 0 0 0 3.41-1.49q2.49-2.28 4.81-9.58a200 200 0 0 0 5.39-22.38 26 26 0 0 0-4.08.58 18.4 18.4 0 0 0-5 1.66 8 8 0 0 0-3.11 2.78 6.63 6.63 0 0 0-1.08 3.59 6.7 6.7 0 0 0 .28 1.91 6.2 6.2 0 0 0 .79 1.58 3.5 3.5 0 0 1 .7 1.63 1.6 1.6 0 0 1-.53 1.2 1.9 1.9 0 0 1-1.33.5 2.4 2.4 0 0 1-2-1.16 6.2 6.2 0 0 1-.8-3.54 10.86 10.86 0 0 1 2.06-6.68 12.66 12.66 0 0 1 5.49-4.16 41 41 0 0 1 8.46-1.7 43 43 0 0 0 4.36-.74ZM142.27 50.62h4.34l-2.87 10.23q-2.52 8.93-2.52 10.16a1.22 1.22 0 0 0 .27.85.84.84 0 0 0 .61.29 2.46 2.46 0 0 0 1.22-.44 35.5 35.5 0 0 0 3.8-3.4l1 1.08q-6.12 6.11-9 6.11a2.2 2.2 0 0 1-1.66-.72 2.83 2.83 0 0 1-.69-2 17.2 17.2 0 0 1 .66-4.07 26.7 26.7 0 0 1-6.69 5.25 9.8 9.8 0 0 1-4.59 1.49 2.16 2.16 0 0 1-1.68-.68 3.14 3.14 0 0 1-.6-2.14 12.3 12.3 0 0 1 .27-2.46c.26-1.23.93-3.71 2-7.42 1.36-4.72 2-7.54 2-8.48 0-.55-.21-.82-.61-.82a3.3 3.3 0 0 0-1.49.54 23.5 23.5 0 0 0-3.23 2.62l-1.34-1a36.3 36.3 0 0 1 6.23-4.62 8.2 8.2 0 0 1 3.45-1.1 1.5 1.5 0 0 1 1.19.52 2.37 2.37 0 0 1 .46 1.6q0 2-2.2 9.94a63 63 0 0 0-1.94 8.13 1.45 1.45 0 0 0 .41 1 1.18 1.18 0 0 0 .93.42q1.71 0 4.84-2.71a12.65 12.65 0 0 0 4.16-6.13ZM158.9 45.34l4.84-1.78-2.19 8.2h6.3l-.48 2.08h-6.31l-2.66 9.82a27 27 0 0 0-1.26 6.14 1.57 1.57 0 0 0 .35 1.15 1.3 1.3 0 0 0 1 .35 6.9 6.9 0 0 0 2.89-1.09 37.5 37.5 0 0 0 4.87-3.25l1.16 1.35a78.6 78.6 0 0 1-8.92 5.92 9.05 9.05 0 0 1-3.63 1.08 2.18 2.18 0 0 1-1.86-.81 4.1 4.1 0 0 1-.65-2.58 27.5 27.5 0 0 1 1.2-6.42l3.1-11.66h-4.94l.55-2.08h4.94ZM178.84 45.34l4.84-1.78-2.19 8.2h6.3l-.48 2.08H181l-2.66 9.82a27 27 0 0 0-1.26 6.14 1.57 1.57 0 0 0 .35 1.15 1.3 1.3 0 0 0 1 .35 6.9 6.9 0 0 0 2.89-1.09 37.5 37.5 0 0 0 4.87-3.25l1.16 1.35a78.6 78.6 0 0 1-8.92 5.92 9.05 9.05 0 0 1-3.63 1.08 2.18 2.18 0 0 1-1.8-.81 4.1 4.1 0 0 1-.65-2.58 27.5 27.5 0 0 1 1.14-6.42l3.09-11.66h-4.93l.55-2.08h4.94Z" class="b"/><path d="m190.17 55.83-1-1.38 2.26-1.46a42 42 0 0 1 4.62-2.78 3.3 3.3 0 0 1 1.4-.36 1.61 1.61 0 0 1 1.22.71 27.1 27.1 0 0 1 4.51 8.76 33.9 33.9 0 0 1 1.82 10.7c0 .45 0 1.14-.06 2q5.14-9.1 5.15-14.48a11.4 11.4 0 0 0-.52-3 13.5 13.5 0 0 1-.57-2.84 1.88 1.88 0 0 1 .57-1.41 1.9 1.9 0 0 1 1.41-.55 2.12 2.12 0 0 1 1.72.79 3.4 3.4 0 0 1 .66 2.25 32.2 32.2 0 0 1-1.8 9.42A59.6 59.6 0 0 1 206 74.33a49.3 49.3 0 0 1-7 9.64 22.1 22.1 0 0 1-6.23 4.53 13.5 13.5 0 0 1-5.62 1.36 5.3 5.3 0 0 1-3-.71 2.07 2.07 0 0 1-1-1.72 1.88 1.88 0 0 1 .79-1.51 3.3 3.3 0 0 1 2.13-.63 15 15 0 0 1 2.83.38 14.6 14.6 0 0 0 2.62.41 6.77 6.77 0 0 0 3.92-1.49 15.7 15.7 0 0 0 4.49-4.89 11.2 11.2 0 0 0 1.66-5.73 47.5 47.5 0 0 0-1.23-9.78 22.5 22.5 0 0 0-3.53-8.69 3.06 3.06 0 0 0-2.4-1.55c-.99-.05-2.43.55-4.26 1.88ZM222.59 47.6l-.52-1.88a15.9 15.9 0 0 0 3.33-3.47 4.84 4.84 0 0 0 .78-2.47 4.7 4.7 0 0 0-.73-2 4 4 0 0 1-.58-2 2.7 2.7 0 0 1 .73-2 2.5 2.5 0 0 1 1.86-.75 2.57 2.57 0 0 1 2 .87 3.2 3.2 0 0 1 .79 2.27 9.77 9.77 0 0 1-1.66 5.14 27.1 27.1 0 0 1-6 6.29ZM243.5 49.85a7.4 7.4 0 0 1 4.19 1 2.87 2.87 0 0 1 1.48 2.33 1.82 1.82 0 0 1-.63 1.38 2.12 2.12 0 0 1-1.51.59 2 2 0 0 1-1-.25 5.7 5.7 0 0 1-1.22-1.25c-1-1.27-2-1.9-2.95-1.9a3.12 3.12 0 0 0-2.21.92 3 3 0 0 0-1 2.3 4.9 4.9 0 0 0 .61 2.32 20.7 20.7 0 0 0 3.08 3.65q3.38 3.45 3.38 6.55a7 7 0 0 1-2.72 5.44 10.56 10.56 0 0 1-7 2.32 8.5 8.5 0 0 1-5.39-1.42 4.33 4.33 0 0 1-1.76-3.5 2.3 2.3 0 0 1 .67-1.7 2.22 2.22 0 0 1 1.64-.67 2.1 2.1 0 0 1 1.46.54 1.65 1.65 0 0 1 .61 1.28v1.4a2 2 0 0 0 .85 1.64 3.45 3.45 0 0 0 2.25.68 7.2 7.2 0 0 0 2.88-.54 4.33 4.33 0 0 0 1.79-1.64 4.1 4.1 0 0 0 .7-2.18 3.93 3.93 0 0 0-.66-2.11 27 27 0 0 0-2.93-3.48C236 61.29 235 59.11 235 57.02a6.57 6.57 0 0 1 2.4-5 8.88 8.88 0 0 1 6.1-2.17ZM305.7 39.92l-.19.73a17 17 0 0 0-4.08 1.47 30 30 0 0 0-4.35 3.19 107 107 0 0 1-12.68 9.41 19.4 19.4 0 0 1 2.65 4.13q1.09 2.28 3.81 10.52 2.43 7.35 5 9.93a7.32 7.32 0 0 0 5.14 2.58 3.43 3.43 0 0 0 3.45-2.58 5.3 5.3 0 0 1 .94-1.88 1.85 1.85 0 0 1 1.22-.47 1.74 1.74 0 0 1 1.25.49 1.52 1.52 0 0 1 .51 1.15c0 1.18-.72 2.31-2.16 3.4a8.77 8.77 0 0 1-5.48 1.64 11.3 11.3 0 0 1-5.44-1.4 14.3 14.3 0 0 1-4.71-4.43 40.1 40.1 0 0 1-4.39-9.3 75 75 0 0 0-3.19-8.23 27 27 0 0 0-3.14-4.68l-3.23 11.91q-1 3.6-1.22 5.16a10.1 10.1 0 0 0 3.72.85c.26 0 .63 0 1.12-.06l-.39 1.46h-.76c-.67 0-1.62-.07-2.86-.2a31 31 0 0 0-3.19-.21 52.5 52.5 0 0 0-8 .94l.18-1.41a9.4 9.4 0 0 0 4.1-1.53 6.7 6.7 0 0 0 1.88-3.1q1.6-4.74 4.2-14.26l3.72-13.57q-6 .36-9.51 2.64-2.72 1.72-2.71 3.87a3.9 3.9 0 0 0 .75 1.93 3.4 3.4 0 0 1 .68 1.7 1.9 1.9 0 0 1-.6 1.39 2 2 0 0 1-1.42.6 2.12 2.12 0 0 1-1.68-.91 3.68 3.68 0 0 1-.74-2.4q0-4.07 4.21-7.34t14.64-3.26h2q-1.67 4.17-2.19 6l-2.42 8.89a26.4 26.4 0 0 0 5.25-2.8q3-2 5.78-4.21a60 60 0 0 0 5.79-5 .9.9 0 0 0 .21-.49c0-.16-.21-.3-.62-.43a19 19 0 0 0-3.52-.25l.4-1.64c2.6.24 4.73.35 6.39.35a56 56 0 0 0 5.88-.29Z" class="b"/><path d="m305.91 56.65-1.34-1a23.8 23.8 0 0 1 5.55-4.58 9.35 9.35 0 0 1 4.27-1.36 2.3 2.3 0 0 1 1.49.41 1.32 1.32 0 0 1 .52 1.11 52.6 52.6 0 0 1-2 7.21q-3.21 10.4-3.21 12.54a1.13 1.13 0 0 0 .21.69.58.58 0 0 0 .46.27q1 0 5-3.63l1.19 1.11a39.8 39.8 0 0 1-6.05 4.84 7 7 0 0 1-3.14 1 2.25 2.25 0 0 1-1.69-.64 2.5 2.5 0 0 1-.62-1.79q0-3.66 4.56-17.9a3.8 3.8 0 0 0 .22-1.2c0-.39-.18-.59-.55-.59a2.73 2.73 0 0 0-1.38.47 31 31 0 0 0-3.49 3.04Zm12-19.39a2.14 2.14 0 0 1 1.56.6 2.08 2.08 0 0 1 .61 1.53 3.23 3.23 0 0 1-.93 2.28 2.84 2.84 0 0 1-2.09 1 2.06 2.06 0 0 1-1.52-.62 2.18 2.18 0 0 1-.61-1.61 3.1 3.1 0 0 1 .88-2.24 2.8 2.8 0 0 1 2.06-.94ZM328.41 45.34l4.83-1.78-2.19 8.2h6.31l-.49 2.08h-6.31l-2.65 9.82a26.5 26.5 0 0 0-1.27 6.14 1.6 1.6 0 0 0 .35 1.15 1.3 1.3 0 0 0 1 .35 6.9 6.9 0 0 0 2.89-1.09 37 37 0 0 0 4.87-3.25l1.16 1.35a78.6 78.6 0 0 1-8.91 5.92 9 9 0 0 1-3.62 1.08 2.17 2.17 0 0 1-1.78-.79 4 4 0 0 1-.66-2.58 28 28 0 0 1 1.11-6.44l3.1-11.66h-4.93l.54-2.08h4.94ZM356.54 68.13l.63 1.7q-7.25 5.49-12.23 5.48a4.27 4.27 0 0 1-3.85-1.81 8.1 8.1 0 0 1-1.21-4.6 20.54 20.54 0 0 1 2.56-9.52 20.7 20.7 0 0 1 6.21-7.5 10.9 10.9 0 0 1 6.45-2 5.9 5.9 0 0 1 3.41.82 2.4 2.4 0 0 1 1.16 2 2 2 0 0 1-.61 1.48 2.38 2.38 0 0 1-1.7.57 6.1 6.1 0 0 1-2.74-.94 6.25 6.25 0 0 0-2.89-1 4.53 4.53 0 0 0-3 1.3 12.4 12.4 0 0 0-2.82 5 22.3 22.3 0 0 0-1.34 7.52 7.12 7.12 0 0 0 1.13 4.3 2.67 2.67 0 0 0 2.3 1.19q3.61 0 8.54-3.99ZM385.46 68.28l.79 1.09a26.7 26.7 0 0 1-5.76 4.74 6.93 6.93 0 0 1-3.32 1.2 2.06 2.06 0 0 1-1.71-.82 4 4 0 0 1-.66-2.55 17.3 17.3 0 0 1 .5-3.41q.51-2.23 2.85-9.62a28.4 28.4 0 0 0 1-4.25c0-.63-.34-.94-1-.94a6.4 6.4 0 0 0-3.21 1.23 18.9 18.9 0 0 0-4.76 4.32 13.1 13.1 0 0 0-2.11 5l-2.4 10.23h-4.54q1.47-5.11 2.25-8.37l4.48-18.79a23 23 0 0 1 3.21-8 14.4 14.4 0 0 1 5.21-4.49 13.6 13.6 0 0 1 6.34-1.68 3.12 3.12 0 0 1 2.07.63 1.94 1.94 0 0 1 .77 1.57 1.77 1.77 0 0 1-.75 1.41 3.1 3.1 0 0 1-2 .61 15 15 0 0 1-1.89-.15 30 30 0 0 0-3.63-.37 2.81 2.81 0 0 0-2.28 1.08q-.88 1.09-1.83 5.13l-3.43 14.42a38.6 38.6 0 0 1 7.9-6.17 8.5 8.5 0 0 1 4-1.5 2.34 2.34 0 0 1 2.53 2.55 8.4 8.4 0 0 1-.24 2q-.41 1.74-1.87 6.27-2 6.27-2.33 7.8a12 12 0 0 0-.35 2.72 1.2 1.2 0 0 0 .16.7.58.58 0 0 0 .51.24c.48 0 1.4-.56 2.73-1.67.78-.6 1.69-1.32 2.77-2.16ZM404.39 67.14l1 1.29q-7.45 6.82-12.78 6.82a4 4 0 0 1-3.3-1.4 7.1 7.1 0 0 1-1.14-4.51 23 23 0 0 1 3.95-12.48q4.44-7.06 10.63-7.07a4.75 4.75 0 0 1 3.3 1 3.69 3.69 0 0 1 1.14 2.86 6.27 6.27 0 0 1-1.37 3.75 15.8 15.8 0 0 1-4.9 3.84c-1.18.64-3.69 1.81-7.55 3.49a18 18 0 0 0-.27 3 4.58 4.58 0 0 0 .68 2.9 2.45 2.45 0 0 0 2 .82 6.65 6.65 0 0 0 2.73-.67 40 40 0 0 0 5.88-3.64Zm-10.65-4.25a24.1 24.1 0 0 0 7.36-4.54 4.9 4.9 0 0 0 1.68-3.37 2.85 2.85 0 0 0-.69-2 2.32 2.32 0 0 0-1.78-.74 3.54 3.54 0 0 0-2.19.82 8.1 8.1 0 0 0-2.41 3.28 28.6 28.6 0 0 0-1.97 6.55ZM410.54 56.74l-1-1a32 32 0 0 1 6.22-4.77 9.1 9.1 0 0 1 4-1.17 1.68 1.68 0 0 1 1 .26.76.76 0 0 1 .36.61 5 5 0 0 1-.15.94l-1.44 5.89a37.2 37.2 0 0 1 7.78-6.19 8.57 8.57 0 0 1 4.1-1.5 2.37 2.37 0 0 1 1.85.74 3 3 0 0 1 .67 2.11 9 9 0 0 1-.27 2q-.48 1.91-2.55 8.29-1.94 6-1.94 7.94a1.8 1.8 0 0 0 .18.9.58.58 0 0 0 .52.3c.59 0 1.51-.55 2.77-1.64.89-.78 1.79-1.51 2.68-2.17l.76 1.06a27.7 27.7 0 0 1-5.81 4.78 6.64 6.64 0 0 1-3.17 1.16 2.19 2.19 0 0 1-1.8-.8 4.3 4.3 0 0 1-.64-2.63q0-2.59 3.38-13a30 30 0 0 0 1-4.31c0-.61-.38-.91-1.13-.91a6.3 6.3 0 0 0-3.13 1.23 18.7 18.7 0 0 0-4.78 4.35 13.7 13.7 0 0 0-2 5l-2.47 10.29H411q1.28-4.39 2.22-8.42l2.71-11.15a5 5 0 0 0 .15-1c0-.53-.2-.8-.61-.8a3 3 0 0 0-1.4.62 18.8 18.8 0 0 0-3.53 2.99ZM0 28.5h512" class="b"/><use xlink:href="#a" width="97.49" height="43.72" transform="matrix(.99 0 0 .98 415 42.5)"/><use xlink:href="#a" width="97.49" height="43.72" transform="matrix(-.99 0 0 .98 97 42.5)"/><path d="M73 90.5h359M216 27.5c14.77-36 57.23-36 72 0" class="c"/></svg>