<svg xmlns="http://www.w3.org/2000/svg" xml:space="preserve" width="256" height="128"><path fill="none" stroke-linecap="round" d="M251.334 81.223a2.773 2.773 0 0 1-2.773 2.773h-90.265a8.1 8.1 0 0 0-5.584 2.233l-38.727 36.862a8.8 8.8 0 0 1-6.06 2.423H54.98a8.49 8.49 0 0 1-6.234-2.727L.287 70.344a1.082 1.082 0 0 1 .795-1.816h6.58c1.912 0 3.75.742 5.127 2.07l37.218 35.916a13.08 13.08 0 0 0 8.746 3.662l25.196.644 21.937-.618a14.48 14.48 0 0 0 9.577-3.986l33.623-32.004a20.62 20.62 0 0 1 14.216-5.684h83.758a4.274 4.274 0 0 1 4.274 4.274zM88.945 110.361l7.622-12.7-7.598 5.238 8.125-6.116L155.18 0l3.013 3.523-59.825 92.302 39.992-30.102 44.186-33.258 1.767 4.716-86.644 59.721z" style="stroke:#000;stroke-width:1;stroke-dasharray:none;stroke-linecap:butt;stroke-dashoffset:0;stroke-linejoin:miter;stroke-miterlimit:4;fill:#fff;fill-opacity:0;fill-rule:nonzero;opacity:1" transform="matrix(-1 0 0 1 254.107 .773)"/></svg>